<svg width="22" height="22" viewBox="0 0 22 22" fill="none" xmlns="http://www.w3.org/2000/svg">
<g clip-path="url(#clip0_27_22)">
<path d="M9.03285 18.925L1.56475 11.4578L21.5417 11.4578C21.7948 11.4578 22 11.2526 22 10.9995C22 10.7464 21.7948 10.5411 21.5417 10.5411L1.56475 10.5411L9.03285 3.07399C9.20872 2.89193 9.20365 2.60176 9.02159 2.42589C8.84396 2.25436 8.56238 2.25436 8.38479 2.42589L0.13479 10.6759C-0.0444321 10.8546 -0.0447754 11.1448 0.133976 11.3241C0.134233 11.3243 0.134533 11.3246 0.13479 11.3249L8.38479 19.5749C8.56685 19.7508 8.85702 19.7457 9.03289 19.5636C9.20446 19.386 9.20446 19.1044 9.03289 18.9268L9.03285 18.925Z" fill="#FFC107"/>
<path d="M-0.000191115 10.9996C-0.000405687 10.8779 0.0477186 10.7612 0.133657 10.6751L8.3837 2.42505C8.56575 2.24918 8.85592 2.25425 9.0318 2.43631C9.20333 2.61394 9.20333 2.89552 9.0318 3.07311L1.10626 10.9995L9.0318 18.925C9.20767 19.1071 9.2026 19.3972 9.02054 19.5731C8.8429 19.7447 8.56133 19.7447 8.38369 19.5731L0.133657 11.3231C0.0479761 11.2373 -0.000148205 11.1209 -0.000191115 10.9996Z" fill="white"/>
<path d="M-1.92738e-06 10.9995C-1.91632e-06 10.7464 0.205217 10.5411 0.458345 10.5411L21.5417 10.5411C21.7948 10.5412 22 10.7464 22 10.9995C22 11.2526 21.7948 11.4579 21.5417 11.4579L0.458302 11.4579C0.205215 11.4579 -1.93845e-06 11.2526 -1.92738e-06 10.9995Z" fill="white"/>
</g>
<defs>
<clipPath id="clip0_27_22">
<rect width="22" height="22" fill="white" transform="translate(22) rotate(90)"/>
</clipPath>
</defs>
</svg>
