<svg width="18" height="18" viewBox="0 0 18 18" fill="none" xmlns="http://www.w3.org/2000/svg">
<path d="M16.1479 17.3086L16.1663 17.2792L17.9994 13.5584L12.6448 9.54243L10.1811 11.3901C9.25193 11.3348 8.37533 10.9408 7.71718 10.2826C7.05903 9.62448 6.66503 8.74786 6.60975 7.81874L8.45741 5.35508L4.44151 0.000487689L0.751823 1.81832L0.720671 1.83362L0.69128 1.85205C0.534973 1.94906 0.406094 2.08446 0.316914 2.24537C0.227734 2.40627 0.181221 2.58732 0.181801 2.77129L0.181801 3.73138C0.181801 5.58128 0.546163 7.41306 1.25409 9.12214C1.96201 10.8312 2.99964 12.3841 4.30771 13.6922C5.61579 15.0003 7.1687 16.0379 8.87778 16.7458C10.5869 17.4537 12.4186 17.8181 14.2685 17.8181L15.2287 17.8181C15.4126 17.8187 15.5937 17.7722 15.7546 17.683C15.9155 17.5938 16.0509 17.465 16.1479 17.3086ZM14.2685 16.4431C7.25927 16.4431 1.5568 10.7406 1.5568 3.73138L1.5568 2.9545L4.02591 1.73823L6.73874 5.35534L5.22844 7.36916L5.22844 7.59831C5.22997 8.96992 5.77552 10.2849 6.7454 11.2548C7.71527 12.2247 9.03026 12.7702 10.4019 12.7717L10.631 12.7717L12.6448 11.2614L16.2617 13.974L15.0452 16.4431L14.2685 16.4431Z" fill="#333333"/>
</svg>
